<?xml version="1.0" encoding="utf-8"?>
<!-- Generator: Adobe Illustrator 26.5.0, SVG Export Plug-In . SVG Version: 6.00 Build 0)  -->
<svg version="1.1" id="Layer_1" xmlns="http://www.w3.org/2000/svg" xmlns:xlink="http://www.w3.org/1999/xlink" x="0px" y="0px"
	 viewBox="0 0 512 512" style="enable-background:new 0 0 512 512;" xml:space="preserve">
<style type="text/css">
	.st0{fill:#ED1C24;}
</style>
<g>
	<path class="st0" d="M219.2,123.7c-39.7,0-69.6,0-101.6,0c0,25.8,0,48.7,0,74.5c36.8,0,73.8,0,115.3,0c0,38.5,0,74.2,0,112.8
		c-39.6,0-76.7,0-115.6,0c0,25.7,0,48.5,0,75.5c31.4,0,61.9,0,101.7,0c-22.8,42.8-41.8,78.4-59.8,112c-53.4,0-101.5,0-152,0
		c0-161.4,0-322,0-485c48.6,0,98,0,152.7,0C177.2,45.8,196.2,80.9,219.2,123.7z"/>
	<path class="st0" d="M253.7,122.4C236.5,85.7,220.2,51,203.9,16.3c92.9-21.7,197.4,18.1,253.6,96c58.8,81.5,63.1,186.4,11.2,271.6
		c-53.8,88.3-152.6,131.1-265.1,114c16.7-35.7,33.2-71,49.7-106.4C355.7,365.5,394,327,392.3,251.6
		C390.8,181.5,349,142.6,253.7,122.4z"/>
</g>
</svg>
